<svg width="54" height="54" viewBox="0 0 54 54" fill="none" xmlns="http://www.w3.org/2000/svg">
<path d="M25.1047 30.4438C25.5918 30.5385 25.6794 30.3001 25.7589 30.131C25.8373 29.9608 26.0706 29.701 26.4109 29.5401C26.7523 29.3781 27.2097 29.105 27.388 28.942C27.5684 28.779 27.7609 28.5762 28.1705 28.5599C28.5811 28.5426 28.7849 28.3429 28.9133 28.079C29.0447 27.8151 28.953 27.2608 29.0427 27.0642C29.1323 26.8696 29.3595 26.5242 29.493 26.2196C29.6285 25.9159 29.5113 25.9414 29.3106 26.029C29.1099 26.1146 28.9347 26.1849 28.8572 26.4549C28.7778 26.7259 28.7054 26.7881 28.4527 26.9725C28.198 27.1559 28.0136 27.2873 27.7416 27.375C27.4665 27.4616 26.9336 27.6287 26.633 27.7754C26.3529 27.9119 26.0564 28.0749 25.7324 28.2685L23.6641 30.3368C24.0502 30.2971 24.6697 30.3592 25.1047 30.4438Z" fill="#3FA9F5"/>
<path d="M47.559 9.5061C47.4591 9.58761 47.3858 9.66199 47.3695 9.71497C47.3165 9.90244 47.288 10.7175 47.0974 11.067C46.911 11.4165 46.8468 12.0879 46.8448 12.2132C46.8397 12.3375 46.8244 12.5576 46.698 12.7634C46.5748 12.9682 46.3221 13.2667 46.4138 13.4186C46.5045 13.5704 46.8682 13.8424 46.6767 14.038C46.4841 14.2337 46.0174 14.5169 46.1519 14.8063C46.2915 15.0966 46.5096 15.6275 46.4994 15.8445C46.4892 16.0615 46.3577 16.2724 46.4933 16.4171C46.6298 16.5618 46.7439 16.8583 46.5452 17.1741C46.3465 17.491 45.3735 18.8603 44.7754 19.3606C44.1794 19.8619 43.6282 20.4253 43.458 20.7493C43.2879 21.0733 43.2685 21.3209 43.1829 21.434C43.0984 21.5471 42.8518 21.7213 42.6745 21.8915C42.4993 22.0616 42.6368 22.1645 42.7285 22.3153C42.8202 22.4671 42.7438 22.7066 42.5991 22.8533C42.4534 23 42.0632 23.2099 42.3057 23.3678C42.5472 23.5267 42.6083 23.7978 42.4932 23.921C42.3791 24.0443 42.1264 24.3775 42.1101 24.5008C42.0917 24.6241 41.5293 24.6281 41.2614 24.4458C40.9954 24.2634 40.5553 23.973 40.65 23.8823C40.7448 23.7916 40.9954 23.6592 41.2206 23.378C41.4478 23.0968 41.4203 22.6964 41.5487 22.6515C41.6822 22.6077 41.7158 22.3622 41.4876 22.2053C41.2573 22.0484 41.1758 21.8915 41.3979 21.6306C41.622 21.3698 41.8808 20.8644 41.4937 20.6444C41.1065 20.4243 40.6745 20.5313 40.1753 20.6912C39.674 20.8522 39.7596 20.9684 39.1166 21.5664C38.4707 22.1645 38.7376 22.4936 38.3443 22.9195C37.9531 23.3444 37.9867 23.5573 37.5945 23.9822C37.2042 24.4081 36.6092 24.784 36.4187 25.1121C36.2271 25.4402 36.4462 25.5115 36.8568 25.2558C37.2684 25.001 37.0809 24.9949 37.6933 24.9328C38.3077 24.8717 38.3117 24.9766 38.7336 24.784C39.1584 24.5925 39.3856 24.457 39.567 24.6485C39.7494 24.8411 40.0662 25.2598 40.2068 25.592C40.3495 25.9241 40.3882 26.3877 40.272 26.9349C40.1539 27.481 40.2242 27.7408 39.9073 28.0729C39.5894 28.403 39.1503 28.5722 38.7274 28.7647C38.3046 28.9563 38.4422 28.8707 38.0377 29.0857C37.6332 29.3017 37.5496 29.1438 37.3601 28.8677C37.1686 28.5915 36.5899 28.6985 36.3311 28.9135C36.0743 29.1285 35.195 30.0699 34.8996 30.237C34.6061 30.4051 33.7992 30.6486 33.5333 30.9237C33.2663 31.1998 33.2133 31.4433 33.3957 31.6135C33.5811 31.7857 33.7676 32.395 33.2989 32.6212C32.8302 32.8473 32.5562 33.0195 32.4288 33.3344C32.3035 33.6512 31.7166 33.9875 31.361 34.125C31.0085 34.2646 30.223 34.5305 29.9407 34.9095C29.6605 35.2875 29.4466 35.6115 29.1154 35.7532C28.7843 35.8968 28.1893 36.2728 27.8296 36.3064C27.47 36.34 27.1837 35.8428 26.3961 35.9844C25.6054 36.1261 24.7863 36.3247 24.5998 36.4664C24.4113 36.607 24.2065 36.8902 23.9803 37.0278C23.7521 37.1623 23.5565 37.3864 22.9156 37.4832C22.2788 37.5841 22.0863 37.6207 21.6777 37.8551C21.2712 38.0904 20.9146 38.3961 20.5641 38.5357C20.2095 38.6743 19.8254 38.5999 19.6542 39.0767C19.4851 39.5535 19.4026 40.1465 19.0806 40.3717C18.7576 40.5989 18.6904 40.7762 18.4122 40.821C18.1371 40.8679 18.074 39.8164 17.3923 39.9305C16.7077 40.0446 16.4825 40.1598 16.2675 40.0681C16.0505 39.9754 15.9527 39.9193 15.6338 39.9804C15.3128 40.0406 14.6037 39.9 14.3796 40.3075C14.1574 40.714 13.8803 40.7589 13.649 41.3936C13.4126 42.0284 13.379 42.1282 13.7132 42.277C14.0474 42.4278 14.028 42.5714 13.8426 42.7131C13.6541 42.8537 13.1956 43.1451 13.0673 43.4813C12.9379 43.8175 12.9093 44.0223 12.7269 44.2882C12.5446 44.5541 12.1594 44.9189 12.3337 45.0259C12.5079 45.1329 12.7005 45.3886 12.5018 45.467C12.3051 45.5435 11.8894 45.6739 11.5756 46.1517C11.2577 46.6296 10.571 47.2429 10.2705 47.5975C10.1645 47.7228 10.0596 47.8288 9.94238 47.9246C14.5915 51.7219 20.5284 54.0001 27.0003 54.0001C41.9124 54.0001 54.0003 41.9122 54.0003 27.0001C54.0003 20.3244 51.5723 14.2194 47.559 9.5061Z" fill="#3FA9F5"/>
<path d="M24.588 28.6302C24.2884 28.5884 24.0276 28.8228 23.9094 28.9318C23.7892 29.0398 23.7158 28.9675 23.4774 28.8931C23.237 28.8187 22.9914 29.0775 22.9242 29.2752C22.8549 29.4738 22.5034 29.4463 22.3719 29.3444C22.2405 29.2426 21.888 29.3821 21.6801 29.5217C21.4733 29.6593 21.2868 29.862 21.0688 30.0831C20.8508 30.3022 21.3276 30.5151 21.4855 30.6822C21.6363 30.8412 21.8788 30.7637 22.0255 30.7006C22.1733 30.6374 22.4748 30.5549 22.6664 30.4835C22.8569 30.4132 23.1595 30.4275 23.5171 30.3511C23.5559 30.3429 23.615 30.3419 23.6618 30.3378L25.7301 28.2695C25.7067 28.2838 25.6853 28.295 25.6619 28.3093C25.3093 28.5202 24.8834 28.6699 24.588 28.6302Z" fill="#70CF29"/>
<path d="M6.18351 43.1307C7.2034 42.7986 8.10408 41.7012 8.46374 41.1113C8.82136 40.5224 9.73324 39.3426 10.3099 38.5876C10.8866 37.8336 12.3772 36.9003 13.6294 36.4877C14.8795 36.0771 16.2876 35.5483 17.008 34.7587C17.7263 33.9691 17.6763 33.7398 18.1491 33.5269C18.6218 33.3149 19.2403 33.0674 19.388 32.8086C19.5337 32.5518 19.5409 31.6909 20.2673 31.4575C20.9938 31.2242 20.9673 31.214 21.0315 30.9104C21.0946 30.6068 20.6688 30.3806 20.4405 30.349C20.2164 30.3185 19.5704 30.4794 19.6601 30.2624C19.7528 30.0464 20.1858 29.4799 20.7431 29.2242C21.2994 28.9674 21.9648 28.5171 22.1298 28.2267C22.2949 27.9374 22.7554 27.4595 23.3117 27.2028C23.87 26.947 24.6362 26.5099 25.0122 26.354C25.3882 26.1971 26.3398 25.8069 26.5425 25.6897C26.7473 25.5715 27.5074 25.3433 27.5441 24.9317C27.5777 24.5201 27.2517 24.4752 27.6286 24.0066C28.0046 23.5369 28.2298 23.4217 28.564 22.8216C28.8951 22.2225 28.9939 22.1094 29.4657 21.8629C29.9374 21.6163 31.0999 20.9011 31.2456 20.9C31.3913 20.899 31.7286 20.8837 31.9935 20.4609C32.2584 20.0381 32.5865 20.0839 32.8473 20.0157C33.1061 19.9474 33.4902 19.2709 33.8183 19.169C34.1433 19.0681 34.2625 18.6677 34.3022 18.3824C34.342 18.0971 34.4938 17.4502 34.8168 17.3697C35.1397 17.2892 35.3557 16.7767 35.4362 16.4975C35.5157 16.2163 35.6206 15.4593 36.0119 15.3482C36.4021 15.2341 36.2666 15.2993 36.4948 15.0181C36.72 14.7359 36.9115 14.2621 37.262 13.9778C37.6166 13.6936 37.7817 13.5489 37.8774 13.1454C37.9763 12.742 38.2493 11.5091 38.7628 10.8092C39.2763 10.1092 39.7858 9.74242 40.3533 9.25743C40.9198 8.77245 40.9361 8.1917 41.257 7.84019C41.5769 7.48766 41.3569 7.26962 41.5555 7.04649C41.7502 6.82336 41.7766 6.63996 41.8133 6.51974C41.851 6.39849 41.6768 6.16721 41.9193 5.90842C42.1618 5.65064 42.3696 5.65879 42.5887 5.43872C42.7354 5.292 42.7038 5.1677 42.7028 5.04543C38.2789 1.87268 32.8605 0 27 0C12.0878 0 0 12.0878 0 27C0 33.1692 2.0734 38.8515 5.55487 43.3977C5.75762 43.2958 5.96751 43.2 6.18351 43.1307Z" fill="#70CF29"/>
</svg>
